# Blender 3.6.0
# www.blender.org
mtllib EscortMK2.mtl
o escort
v 56.644199 108.999283 -32.911205
v 56.481098 107.473297 86.163490
v 56.427502 73.266502 147.013000
v 69.839798 64.214500 180.192001
v 66.933601 66.341904 189.908997
v 66.933601 65.882607 190.632004
v 67.989899 61.639515 189.494995
v 71.552696 69.579788 -68.578796
v 71.706802 58.462418 -184.998993
v 0.000000 60.057747 -186.479004
v 71.706802 53.346294 -192.608994
v 73.140900 23.716476 -189.425995
v 0.000000 71.066483 -79.119598
v 77.102303 51.127258 -131.750000
v 78.561699 17.416080 -95.461403
v 77.224701 43.243576 -159.455994
v 76.101898 23.716476 -177.384995
v 78.540497 39.102180 -107.986000
v 81.627197 47.670391 -131.750000
v 82.424301 41.005779 -157.841003
v 82.522797 37.073883 -109.612999
v 78.828903 17.416080 -103.688004
v 84.802200 41.736382 -131.662994
v 83.043404 35.566277 -155.449997
v 83.955200 32.390079 -113.894997
v 72.854103 16.361076 -184.309006
v 76.698700 16.731579 -168.628006
v 78.089699 17.280495 62.189102
v 84.406898 37.586998 136.304993
v 86.046097 41.005798 86.762802
v 84.916100 47.670410 112.853996
v 83.382896 17.416100 140.250000
v 85.839302 30.411699 129.320999
v 86.665199 31.511198 91.848396
v 87.560799 38.081696 112.853996
v 0.000000 2.525673 -186.917007
v 71.706802 2.525673 -184.817001
v 74.193604 2.525677 -171.839996
v 50.041698 2.525677 -173.940002
v 83.909302 28.500395 73.391197
v 82.228500 16.861698 79.198303
v 76.923302 52.596447 112.853996
v 78.881897 34.540993 69.796799
v 78.327003 49.570377 82.194099
v 74.534302 0.570084 -98.141090
v 72.635803 7.541100 166.063004
v 72.635803 4.555099 142.115997
v 78.540497 42.372002 141.591003
v 71.512604 47.100136 194.421005
v 70.498001 71.014404 141.007996
v 73.795097 0.434498 76.917610
v 78.561699 17.416100 153.570007
v 74.351097 19.044006 186.778000
v 74.171898 33.228474 -193.216003
v 30.660700 33.228474 -194.438004
v 74.435303 24.985975 -192.548996
v 30.660700 24.985975 -190.927994
v 30.660700 24.985975 -193.772003
v 30.660700 33.228474 -191.018997
v 72.474297 33.228474 -189.817993
v 75.436996 24.985977 -184.630997
v 72.474297 24.985977 -188.828003
v 30.660700 24.985975 -190.300995
v 75.242996 33.228477 -185.539993
v 72.849899 33.228477 -184.970993
v 72.849899 24.985977 -184.059998
v 70.696999 25.682205 191.270996
v 70.327499 23.999805 193.729004
v 70.445702 19.044006 193.729004
v 50.041698 4.555099 142.115997
v 50.226501 0.570084 -98.141090
v 49.856899 0.434498 76.917610
v -56.481098 107.473297 86.163490
v -56.644199 108.999283 -32.911205
v -56.427502 73.266502 147.013000
v -69.839798 64.214500 180.192001
v -66.933601 66.341904 189.908997
v -66.933601 65.882607 190.632004
v -67.989899 61.639515 189.494995
v -71.552696 69.579788 -68.578796
v -71.706802 58.462418 -184.998993
v -71.706802 53.346294 -192.608994
v 0.000000 54.338154 -194.587006
v -73.140900 23.716476 -189.425995
v 0.000000 23.716475 -191.526001
v -77.102303 51.127258 -131.750000
v -78.561699 17.416080 -95.461403
v -78.540497 39.102180 -107.986000
v -77.224701 43.243576 -159.455994
v -76.101898 23.716476 -177.384995
v -78.327003 49.570377 82.194099
v -78.089699 17.280495 62.189102
v -82.522797 37.073883 -109.612999
v -82.424301 41.005779 -157.841003
v -81.627197 47.670391 -131.750000
v -78.828903 17.416080 -103.688004
v -83.955200 32.390079 -113.894997
v -83.043404 35.566277 -155.449997
v -76.698700 16.731579 -168.628006
v -84.802200 41.736382 -131.662994
v -72.854103 16.361076 -184.309006
v 0.000000 16.361076 -186.408005
v -78.540497 42.372002 141.591003
v -78.561699 17.416100 153.570007
v -84.406898 37.586998 136.304993
v -78.881897 34.540993 69.796799
v -86.046097 41.005798 86.762802
v -83.909302 28.500395 73.391197
v -76.923302 52.596447 112.853996
v -84.916100 47.670410 112.853996
v -83.382896 17.416100 140.250000
v -85.839302 30.411699 129.320999
v -82.228500 16.861698 79.198303
v -87.560799 38.081696 112.853996
v -86.665199 31.511198 91.848396
v -71.706802 2.525673 -184.817001
v -74.193604 2.525677 -171.839996
v -50.041698 2.525677 -173.940002
v -70.498001 71.014404 141.007996
v -74.534302 0.570084 -98.141090
v -73.795097 0.434498 76.917610
v -72.635803 4.555099 142.115997
v -71.512604 47.100136 194.421005
v -72.635803 7.541100 166.063004
v -50.226501 0.570084 -98.141090
v -50.041698 4.555099 142.115997
v -30.660700 33.228474 -191.018997
v -72.474297 33.228474 -189.817993
v -74.171898 33.228474 -193.216003
v -30.660700 33.228474 -194.438004
v -72.849899 33.228477 -184.970993
v -75.242996 33.228477 -185.539993
v -74.435303 24.985975 -192.548996
v -30.660700 24.985975 -193.772003
v -30.660700 24.985975 -190.927994
v -75.436996 24.985977 -184.630997
v -72.474297 24.985977 -188.828003
v -30.660700 24.985975 -190.300995
v -72.849899 24.985977 -184.059998
v -70.327499 23.999805 193.729004
v -70.445702 19.044006 193.729004
v -74.351097 19.044006 186.778000
v -49.856899 0.434498 76.917610
v -70.696899 25.682205 191.270996
v 38.566799 17.725174 -186.910995
v 38.566799 31.802675 -205.026993
v 51.955299 22.075375 -205.026993
v 46.841301 6.336174 -205.026993
v 30.292200 6.336174 -205.026993
v 25.178200 22.075375 -205.026993
v 33.866901 44.306675 -186.910995
v 33.866901 58.384216 -205.026993
v 47.255501 48.656864 -205.026993
v 42.141499 32.917675 -205.026993
v 25.592400 32.917675 -205.026993
v 20.478399 48.656876 -205.026993
v -33.866901 44.306675 -186.910995
v -33.866901 58.384216 -205.026993
v -20.478399 48.656864 -205.026993
v -25.592400 32.917675 -205.026993
v -42.141499 32.917675 -205.026993
v -47.255501 48.656876 -205.026993
v -38.566799 17.725174 -186.910995
v -38.566799 31.802675 -205.026993
v -25.178200 22.075375 -205.026993
v -30.292200 6.336174 -205.026993
v -46.841400 6.336174 -205.026993
v -51.955299 22.075375 -205.026993
v 26.516800 39.718674 -202.595993
v 27.047100 37.344074 -202.595993
v -26.516800 39.718674 -202.595993
v -27.047100 37.344074 -202.595993
v -28.984100 17.595676 -202.595993
v 28.984100 17.595676 -202.595993
v 29.563700 15.221176 -202.595993
v -29.563700 15.221176 -202.595993
v 74.874802 25.573904 186.778000
v -74.874802 25.573904 186.778000
v 71.093498 30.273705 192.923004
v -71.093498 30.273705 192.923004
v 75.559601 46.498875 186.643997
v -75.559601 46.498875 186.643997
v 71.944801 38.686905 194.490005
v -71.944702 38.686905 194.490005
v 70.014900 65.845100 172.016998
v 73.933197 10.829903 175.289001
v 76.706100 18.563301 174.656006
v -73.933197 10.829903 175.289001
v -70.014900 65.845100 172.016998
v 77.764297 45.442902 174.656006
v 77.507896 23.066502 174.656006
v -76.706001 18.563301 174.656006
v -77.764297 45.442902 174.656006
v -77.507896 23.066502 174.656006
v 56.635700 112.431595 -21.087904
v -56.635700 112.431595 -21.087904
v 56.494499 112.150497 65.366196
v -56.494499 112.150497 65.366196
vn -0.0000 -0.9756 -0.2194
vn -0.3293 -0.8230 -0.4629
vn -0.1665 -0.9663 -0.1963
vn -0.2236 -0.9608 -0.1637
vn -0.0000 -0.9769 0.2139
vn -0.0000 -0.8441 -0.5362
vn -0.0000 0.2588 -0.9659
vn -0.9510 -0.1923 -0.2423
vn -0.9697 -0.2063 -0.1310
vn -0.0000 -0.7729 0.6345
vn -0.0300 -0.8295 0.5577
vn -0.0272 -0.8168 0.5762
vn -0.0285 0.1054 0.9940
vn -0.0261 0.0994 0.9947
vn -0.0242 -0.9945 0.1020
vn -0.0347 -0.9949 0.0950
vn -0.9545 -0.2983 0.0033
vn -0.9832 -0.0895 0.1591
vn -0.5199 -0.4276 -0.7395
vn -0.4595 -0.5862 0.6672
vn -0.5925 -0.7755 0.2181
vn -0.4407 -0.8729 0.2095
vn -0.5354 -0.7662 -0.3553
vn -0.5720 -0.7487 -0.3352
vn -0.9840 0.1753 -0.0320
vn -0.9248 0.0606 -0.3756
vn -0.9562 0.0195 0.2920
vn -0.9617 0.1785 0.2079
vn -0.8785 -0.4687 0.0929
vn -0.9931 -0.0725 0.0922
vn -0.9702 -0.2314 -0.0715
vn -0.8447 -0.4561 -0.2802
vn -0.0236 0.5715 0.8202
vn -0.0236 0.5710 0.8206
vn -0.9515 0.1999 0.2340
vn -0.7590 -0.2823 -0.5868
vn -0.7999 -0.3991 0.4481
vn -0.7695 -0.6260 0.1266
vn -0.5061 -0.8212 -0.2637
vn -0.9778 0.0087 -0.2095
vn -0.9387 0.2526 0.2346
vn -0.9637 -0.2658 0.0262
vn -0.9979 -0.0362 0.0539
vn -0.9894 -0.1245 -0.0750
vn -0.9406 -0.2594 -0.2192
vn -0.0288 -0.0343 0.9990
vn -0.0293 -0.0367 0.9989
vn -0.9652 0.1173 0.2339
vn -0.9794 0.0743 0.1877
vn -0.0000 1.0000 -0.0000
vn -0.9738 0.1971 0.1132
vn -0.9993 -0.0377 0.0010
vn -0.9940 -0.1092 0.0049
vn -0.7400 -0.2426 0.6274
vn -0.9710 0.2371 -0.0315
vn -0.9696 0.2448 -0.0027
vn -0.9724 0.2331 -0.0039
vn -0.7572 0.5930 -0.2741
vn -0.8793 0.4203 0.2243
vn -0.9893 0.0134 0.1455
vn -0.9047 0.4137 -0.1021
vn -0.9409 0.3383 0.0117
vn -0.0000 -0.3209 -0.9471
vn -0.9200 -0.3672 -0.1369
vn -0.9384 -0.3346 -0.0868
vn -0.9617 -0.2709 -0.0423
vn -0.0000 -0.0082 -1.0000
vn -0.0000 1.0000 0.0008
vn -0.0000 0.9923 -0.1237
vn -0.0000 -1.0000 -0.0000
vn -0.0280 0.0797 0.9964
vn -0.0278 0.0805 0.9964
vn 1.0000 -0.0000 -0.0000
vn -0.9920 -0.0095 0.1255
vn -0.9902 -0.0205 0.1382
vn -0.2143 -0.1073 -0.9709
vn -0.2299 -0.1120 -0.9668
vn -0.6961 0.2955 -0.6543
vn -0.9401 -0.0188 -0.3403
vn -0.8864 0.4594 -0.0573
vn -0.0000 -0.0000 -1.0000
vn -0.0000 0.9980 -0.0631
vn 0.3293 -0.8230 -0.4629
vn -0.0000 -0.8717 -0.4900
vn -0.0000 -0.9647 -0.2632
vn 0.1665 -0.9663 -0.1963
vn 0.2236 -0.9608 -0.1637
vn 0.9697 -0.2063 -0.1310
vn 0.9510 -0.1923 -0.2423
vn 0.0272 -0.8168 0.5762
vn 0.0300 -0.8295 0.5577
vn 0.0261 0.0994 0.9947
vn 0.0285 0.1054 0.9940
vn 0.9146 -0.4025 0.0372
vn 0.0347 -0.9949 0.0950
vn 0.0242 -0.9945 0.1020
vn 0.9545 -0.2983 0.0033
vn 0.5199 -0.4276 -0.7395
vn 0.4595 -0.5862 0.6672
vn 0.4407 -0.8729 0.2095
vn 0.5925 -0.7755 0.2181
vn 0.5720 -0.7487 -0.3352
vn 0.5354 -0.7662 -0.3553
vn 0.9248 0.0606 -0.3756
vn 0.9840 0.1753 -0.0320
vn 0.9617 0.1785 0.2079
vn 0.9562 0.0195 0.2920
vn 0.9931 -0.0725 0.0922
vn 0.8785 -0.4687 0.0929
vn 0.8447 -0.4561 -0.2802
vn 0.9702 -0.2314 -0.0715
vn 0.0236 0.5710 0.8206
vn 0.0236 0.5715 0.8202
vn 0.9515 0.1999 0.2340
vn 0.7590 -0.2823 -0.5868
vn 0.7999 -0.3991 0.4481
vn 0.5237 -0.8498 0.0599
vn 0.5061 -0.8212 -0.2637
vn 0.9778 0.0087 -0.2095
vn 0.9387 0.2526 0.2346
vn 0.9979 -0.0362 0.0539
vn 0.9637 -0.2658 0.0262
vn 0.9406 -0.2594 -0.2192
vn 0.9894 -0.1245 -0.0750
vn 0.0293 -0.0367 0.9989
vn 0.0288 -0.0343 0.9990
vn 0.9794 0.0743 0.1877
vn 0.9652 0.1173 0.2339
vn 0.9738 0.1971 0.1132
vn 0.9940 -0.1092 0.0049
vn 0.9993 -0.0377 0.0010
vn 0.7400 -0.2426 0.6274
vn 0.9710 0.2371 -0.0315
vn 0.9724 0.2331 -0.0039
vn 0.9696 0.2448 -0.0027
vn 0.7572 0.5930 -0.2741
vn 0.8793 0.4203 0.2243
vn 0.9893 0.0134 0.1455
vn 0.9391 0.3285 -0.1005
vn 0.8804 0.4721 -0.0445
vn 0.9118 -0.3116 -0.2675
vn 0.8218 -0.4096 -0.3960
vn 0.9617 -0.2709 -0.0423
vn 0.8825 -0.4519 0.1305
vn 0.9453 -0.3262 -0.0026
vn 0.9452 -0.3264 -0.0025
vn 0.8586 -0.5001 -0.1130
vn -0.0000 0.9419 -0.3358
vn 0.0278 0.0805 0.9964
vn 0.0280 0.0797 0.9964
vn -1.0000 -0.0000 -0.0000
vn 0.9902 -0.0205 0.1382
vn 0.9920 -0.0095 0.1255
vn 0.2299 -0.1120 -0.9668
vn 0.2143 -0.1073 -0.9709
vn 0.5748 -0.6324 -0.5193
vn 0.9401 -0.0188 -0.3403
vn 0.8864 0.4594 -0.0573
vn -0.1194 -0.6906 0.7133
vn 0.1194 -0.6906 0.7133
vn -0.7448 -0.6070 -0.2772
vn 0.7448 -0.6070 -0.2772
vn -0.5237 -0.8498 0.0599
vn 0.7695 -0.6260 0.1266
vn -0.7572 -0.4123 0.5066
vn 0.7572 -0.4123 0.5066
vn -0.0000 0.9997 0.0258
vn -0.9517 0.2051 0.2285
vn 0.9517 0.2051 0.2285
vn -0.8825 -0.4519 0.1305
vn -0.9453 -0.3262 -0.0026
vn -0.9452 -0.3264 -0.0025
vn -0.8586 -0.5001 -0.1130
vn 0.9500 -0.3120 -0.0127
vn 0.9415 -0.3371 -0.0024
vn -0.9500 -0.3120 -0.0127
vn -0.9415 -0.3371 -0.0024
vn -0.9146 -0.4025 0.0372
vn 0.9680 -0.2424 0.0647
vn -0.9708 -0.0213 0.2387
vn -0.9913 -0.1093 0.0735
vn -0.9680 -0.2424 0.0647
vn 0.9708 -0.0213 0.2387
vn 0.9913 -0.1093 0.0735
vn 0.9832 -0.0895 0.1591
vn 0.9989 0.0471 -0.0030
vn 1.0000 0.0001 0.0019
vn -0.9989 0.0471 -0.0030
vn -1.0000 0.0001 0.0019
vn -0.4976 -0.6849 -0.5322
vn -0.8052 0.2616 -0.5322
vn -0.0000 0.8466 -0.5322
vn 0.8052 0.2616 -0.5322
vn 0.4976 -0.6849 -0.5322
vn -0.0000 -0.0000 1.0000
vn -0.5748 -0.6324 -0.5193
vn 0.6960 0.2956 -0.6544
vn 0.8697 0.0697 -0.4886
vn 0.8346 -0.0199 -0.5505
vn -0.8697 0.0697 -0.4886
vn -0.8346 -0.0199 -0.5505
vn -0.0000 -0.8252 -0.5648
vn 0.9800 0.1745 -0.0957
vn -0.0000 0.3386 -0.9409
vn -0.7634 0.1921 -0.6167
vn 0.7634 0.1921 -0.6167
vn -0.9118 -0.3116 -0.2675
vn -0.8218 -0.4096 -0.3960
vn 0.9384 -0.3346 -0.0868
vn 0.9200 -0.3672 -0.1369
vn -0.9767 0.0112 -0.2145
vn -0.9825 0.0310 -0.1834
vn 0.9767 0.0112 -0.2145
vn 0.9825 0.0310 -0.1834
vn -0.0000 0.1831 -0.9831
vn -0.8876 -0.0493 -0.4580
vn -0.9180 0.0275 -0.3956
vn 0.9180 0.0275 -0.3956
vn 0.8876 -0.0493 -0.4581
vn -0.9657 0.1719 -0.1944
vn -0.9708 0.0779 -0.2270
vn -0.9285 0.3171 -0.1930
vn -0.9628 -0.2703 0.0025
vn -0.9290 -0.3625 -0.0749
vn 0.9285 0.3171 -0.1930
vn -0.0000 0.8135 -0.5816
vn 0.9290 -0.3625 -0.0749
vn 0.9628 -0.2703 0.0025
vn -0.9988 -0.0220 -0.0440
vn -0.9996 0.0115 -0.0245
vn 0.9988 -0.0220 -0.0440
vn 0.9996 0.0115 -0.0245
vn -0.9800 0.1745 -0.0957
vn 0.9708 0.0779 -0.2270
vn 0.9657 0.1720 -0.1944
vn -0.0000 -0.9604 0.2788
vn -0.0000 -1.0000 -0.0033
vt 0.646841 0.508429
vt 0.608431 0.511135
vt 0.608182 0.262534
vt 0.646619 0.259464
vt 0.787546 0.513928
vt 0.778127 0.545691
vt 0.898028 0.546523
vt 0.879630 0.546627
vt 0.897386 0.227725
vt 0.929677 0.232738
vt 0.929677 0.541407
vt 0.931640 0.232721
vt 0.931641 0.541424
vt 0.950139 0.227545
vt 0.950140 0.546599
vt 0.893963 0.613794
vt 0.872748 0.611501
vt 0.901178 0.596010
vt 0.902991 0.596780
vt 0.393248 0.513658
vt 0.244188 0.388707
vt 0.392220 0.262059
vt 0.839336 0.859972
vt 0.999112 0.859972
vt 0.999112 0.881140
vt 0.839336 0.881140
vt 0.999112 0.948111
vt 0.839336 0.948111
vt 0.004444 0.550178
vt 0.004444 0.390778
vt 0.265793 0.549240
vt 0.296410 0.604378
vt 0.632243 0.660042
vt 0.154090 0.644747
vt 0.042765 0.696624
vt 0.036508 0.618203
vt 0.089206 0.657892
vt 0.207864 0.673109
vt 0.234185 0.723097
vt 0.201685 0.680476
vt 0.094875 0.669243
vt 0.152374 0.661347
vt 0.215939 0.723789
vt 0.192566 0.691006
vt 0.098023 0.681950
vt 0.058125 0.716493
vt 0.152233 0.674122
vt 0.999112 0.968008
vt 0.839336 0.968008
vt 0.022140 0.710671
vt 0.014058 0.692302
vt 0.769335 0.671601
vt 0.804083 0.724731
vt 0.756330 0.687485
vt 0.602962 0.693888
vt 0.613450 0.709226
vt 0.702019 0.674354
vt 0.644803 0.684843
vt 0.702363 0.650925
vt 0.772671 0.729501
vt 0.743287 0.705948
vt 0.585062 0.733130
vt 0.623213 0.736812
vt 0.703246 0.695047
vt 0.655006 0.706334
vt 0.999112 0.998720
vt 0.839336 0.998720
vt 0.044127 0.746208
vt 0.015289 0.740667
vt 0.404985 0.992878
vt 0.391338 0.995493
vt 0.393546 0.970095
vt 0.227631 0.761826
vt 0.615957 0.773994
vt 0.787500 0.762410
vt 0.853700 0.738770
vt 0.867427 0.711700
vt 0.870601 0.726151
vt 0.662755 0.848687
vt 0.656616 0.817942
vt 0.987947 0.817941
vt 0.981809 0.848686
vt 0.877956 0.646467
vt 0.857669 0.652899
vt 0.854570 0.610171
vt 0.777142 0.604505
vt 0.655959 0.799547
vt 0.988605 0.799546
vt 0.129723 0.995073
vt 0.129723 0.969900
vt 0.313811 0.970289
vt 0.313811 0.995851
vt 0.786172 0.039173
vt 0.790427 0.027482
vt 0.794416 0.042173
vt 0.028296 0.212894
vt 0.021841 0.204772
vt 0.120375 0.204772
vt 0.120375 0.212894
vt 0.021841 0.222959
vt 0.021841 0.221528
vt 0.021841 0.186365
vt 0.120375 0.186365
vt 0.128197 0.204772
vt 0.126918 0.186365
vt 0.007320 0.204772
vt 0.007320 0.186365
vt 0.028296 0.178769
vt 0.120375 0.178769
vt 0.018662 0.170693
vt 0.024418 0.169269
vt 0.001602 0.204772
vt 0.001602 0.186365
vt 0.907024 0.685646
vt 0.883747 0.691196
vt 0.910194 0.678823
vt 0.386483 0.815826
vt 0.028006 0.815826
vt 0.028006 0.797384
vt 0.386483 0.797384
vt 0.030303 0.776820
vt 0.384186 0.776820
vt 0.843430 0.046773
vt 0.830931 0.055464
vt 0.061025 0.970095
vt 0.061024 0.864849
vt 0.129723 0.865043
vt 0.777378 0.229433
vt 0.786953 0.260689
vt 0.878969 0.227701
vt 0.893098 0.161799
vt 0.902126 0.178813
vt 0.900312 0.179582
vt 0.871883 0.164091
vt 0.679363 0.881140
vt 0.679363 0.859972
vt 0.679363 0.948111
vt 0.035646 0.157391
vt 0.153227 0.130843
vt 0.295548 0.171210
vt 0.004444 0.231365
vt 0.263452 0.227933
vt 0.631380 0.115546
vt 0.207001 0.102480
vt 0.200822 0.095113
vt 0.233322 0.052491
vt 0.041900 0.078972
vt 0.094011 0.106351
vt 0.088342 0.117702
vt 0.151511 0.114243
vt 0.191702 0.084582
vt 0.215075 0.051800
vt 0.057260 0.059102
vt 0.097159 0.093643
vt 0.151370 0.101468
vt 0.679363 0.968008
vt 0.013193 0.083294
vt 0.021275 0.064925
vt 0.768472 0.103988
vt 0.755467 0.088103
vt 0.803222 0.050858
vt 0.602099 0.081700
vt 0.612587 0.066362
vt 0.701156 0.101233
vt 0.701500 0.124663
vt 0.742425 0.069640
vt 0.771810 0.046088
vt 0.584199 0.042458
vt 0.622349 0.038776
vt 0.643940 0.090744
vt 0.654143 0.069254
vt 0.702383 0.080540
vt 0.679363 0.998720
vt 0.014422 0.034930
vt 0.043260 0.029388
vt 0.404985 0.842067
vt 0.393546 0.864849
vt 0.391338 0.839452
vt 0.407193 0.917472
vt 0.226767 0.013763
vt 0.615093 0.001594
vt 0.786641 0.013179
vt 0.869848 0.049692
vt 0.866758 0.064339
vt 0.852839 0.036822
vt 0.910194 0.132208
vt 0.874810 0.129111
vt 0.776279 0.171083
vt 0.405679 0.261936
vt 0.129723 0.839870
vt 0.313811 0.839093
vt 0.313811 0.864655
vt 0.790933 0.023729
vt 0.845455 0.043573
vt 0.839175 0.058464
vt 0.028296 0.569993
vt 0.120375 0.569993
vt 0.120375 0.578117
vt 0.021841 0.578117
vt 0.021841 0.561365
vt 0.021841 0.559930
vt 0.120375 0.596523
vt 0.021841 0.596523
vt 0.127969 0.578117
vt 0.126691 0.596523
vt 0.007320 0.578117
vt 0.007320 0.596523
vt 0.120375 0.604119
vt 0.028296 0.604119
vt 0.024195 0.613619
vt 0.018437 0.612197
vt 0.001602 0.578117
vt 0.001602 0.596523
vt 0.905780 0.088270
vt 0.880463 0.083632
vt 0.915348 0.087766
vt 0.406689 0.513766
vt 0.018293 0.626086
vt 0.017430 0.149510
vt 0.664299 0.021339
vt 0.687135 0.028759
vt 0.664299 0.045350
vt 0.678412 0.001914
vt 0.650186 0.001914
vt 0.641463 0.028759
vt 0.100168 0.061810
vt 0.070994 0.040695
vt 0.129266 0.040588
vt 0.082060 0.006423
vt 0.118074 0.006357
vt 0.732925 0.743941
vt 0.755760 0.751361
vt 0.732924 0.767952
vt 0.747038 0.724516
vt 0.718811 0.724516
vt 0.710089 0.751361
vt 0.099768 0.770812
vt 0.070594 0.749697
vt 0.128865 0.749590
vt 0.081660 0.715425
vt 0.117674 0.715359
vt 0.666748 0.744455
vt 0.689583 0.751875
vt 0.666748 0.768466
vt 0.680861 0.725030
vt 0.652635 0.725030
vt 0.643912 0.751875
vt 0.172512 0.769447
vt 0.143338 0.748332
vt 0.201609 0.748225
vt 0.154404 0.714060
vt 0.190418 0.713994
vt 0.731146 0.022575
vt 0.753982 0.029995
vt 0.731146 0.046586
vt 0.745259 0.003150
vt 0.717033 0.003150
vt 0.708310 0.029995
vt 0.177057 0.062092
vt 0.147882 0.040977
vt 0.206154 0.040870
vt 0.158948 0.006705
vt 0.194962 0.006639
vt 0.977045 0.002771
vt 0.982488 0.001555
vt 0.982488 0.125545
vt 0.977045 0.124330
vt 0.993543 0.002353
vt 0.998986 0.001025
vt 0.998986 0.136551
vt 0.993543 0.135223
vt 0.918526 0.686102
vt 0.910194 0.095503
vt 0.897951 0.070957
vt 0.918344 0.074565
vt 0.923092 0.700781
vt 0.898526 0.705302
vt 0.030523 0.825106
vt 0.383966 0.825106
vt 0.862675 0.072974
vt 0.658203 0.773723
vt 0.986361 0.773722
vt 0.986294 0.780861
vt 0.658270 0.780861
vt 0.911631 0.660905
vt 0.911696 0.114053
vt 0.910194 0.643385
vt 0.853706 0.165420
vt 0.856814 0.122682
vt 0.863623 0.702106
vt 0.791769 0.017528
vt 0.848801 0.038285
s 0
usemtl 01_-_Default
f 2/1/1 198/3/1 197/2/1
f 198/3/1 2/1/1 73/4/1
f 2/1/2 50/6/2 3/5/2
f 3/5/3 185/8/3 4/7/3
f 185/8/4 3/5/4 50/6/4
f 76/9/5 5/11/5 77/10/5
f 5/11/5 76/9/5 4/7/5
f 77/10/6 6/13/6 78/12/6
f 6/13/6 77/10/6 5/11/6
f 78/12/7 7/15/7 79/14/7
f 7/15/7 78/12/7 6/13/7
f 7/16/8 5/18/8 4/17/8
f 5/18/9 7/16/9 6/19/9
f 1/20/10 74/22/10 13/21/10
f 10/23/11 11/25/11 9/24/11
f 11/25/12 10/23/12 83/26/12
f 11/25/13 85/28/13 12/27/13
f 85/28/14 11/25/14 83/26/14
f 9/29/15 13/21/15 10/30/15
f 13/21/16 9/29/16 8/31/16
f 8/32/17 14/34/17 44/33/17
f 17/35/18 16/37/18 9/36/18
f 18/38/19 21/40/19 15/39/19
f 17/35/20 20/41/20 16/37/20
f 16/37/21 19/42/21 14/34/21
f 19/42/22 16/37/22 20/41/22
f 14/34/23 21/40/23 18/38/23
f 21/40/24 14/34/24 19/42/24
f 21/40/25 22/43/25 15/39/25
f 22/43/26 21/40/26 25/44/26
f 17/35/27 24/45/27 20/41/27
f 24/45/28 17/35/28 27/46/28
f 20/41/29 23/47/29 19/42/29
f 23/47/30 20/41/30 24/45/30
f 19/42/31 25/44/31 21/40/31
f 25/44/32 19/42/32 23/47/32
f 85/28/33 26/48/33 12/27/33
f 26/48/34 85/28/34 102/49/34
f 17/35/35 12/51/35 26/50/35
f 48/52/36 29/54/36 52/53/36
f 43/55/37 40/56/37 44/33/37
f 44/33/38 30/58/38 31/57/38
f 42/59/39 31/57/39 48/52/39
f 29/54/40 33/61/40 32/60/40
f 28/62/41 41/63/41 40/56/41
f 30/58/42 35/64/42 31/57/42
f 35/64/43 30/58/43 34/65/43
f 31/57/44 33/61/44 29/54/44
f 33/61/45 31/57/45 35/64/45
f 102/49/46 37/66/46 26/48/46
f 37/66/47 102/49/47 36/67/47
f 26/50/48 38/68/48 27/46/48
f 38/68/49 26/50/49 37/69/49
f 37/70/50 39/72/50 38/71/50
f 40/56/51 41/63/51 34/65/51
f 44/33/52 18/38/52 43/55/52
f 18/38/53 44/33/53 14/34/53
f 40/56/54 43/55/54 28/62/54
f 22/43/55 45/73/55 15/39/55
f 15/39/56 51/74/56 28/62/56
f 51/74/57 15/39/57 45/73/57
f 32/60/58 47/75/58 52/53/58
f 28/62/59 51/74/59 41/63/59
f 40/56/60 34/65/60 30/58/60
f 46/76/61 187/77/61 52/53/61
f 187/77/62 46/76/62 186/78/62
f 79/79/63 49/81/63 123/80/63
f 49/81/63 79/79/63 7/82/63
f 181/83/64 185/85/64 190/84/64
f 185/85/65 181/83/65 4/17/65
f 48/52/66 50/86/66 42/59/66
f 123/80/67 183/88/67 184/87/67
f 183/88/67 123/80/67 49/81/67
f 51/89/68 71/91/68 72/90/68
f 71/91/68 51/89/68 45/92/68
f 47/93/69 70/95/69 46/94/69
f 60/96/70 55/98/70 54/97/70
f 55/98/70 60/96/70 59/99/70
f 54/97/70 65/100/70 60/96/70
f 65/100/70 54/97/70 64/101/70
f 55/98/71 56/102/71 54/97/71
f 56/102/72 55/98/72 58/103/72
f 59/104/73 58/103/73 55/98/73
f 58/103/73 59/104/73 57/105/73
f 64/106/74 56/102/74 61/107/74
f 56/102/75 64/106/75 54/97/75
f 58/103/50 62/108/50 56/102/50
f 62/108/50 58/103/50 63/109/50
f 56/102/50 66/111/50 61/110/50
f 66/111/50 56/102/50 62/108/50
f 65/112/76 61/107/76 66/113/76
f 61/107/77 65/112/77 64/106/77
f 67/114/78 179/116/78 177/115/78
f 29/54/79 32/60/79 52/53/79
f 52/53/80 47/75/80 46/76/80
f 68/117/81 141/119/81 140/118/81
f 141/119/81 68/117/81 69/120/81
f 69/120/50 142/121/50 141/119/50
f 142/121/50 69/120/50 53/122/50
f 46/94/69 126/124/69 124/123/69
f 126/124/69 46/94/69 70/95/69
f 72/90/82 126/126/82 70/125/82
f 126/126/82 72/90/82 143/127/82
f 73/4/83 75/129/83 119/128/83
f 73/4/84 3/5/84 75/129/84
f 3/5/84 73/4/84 2/1/84
f 76/9/85 3/5/85 4/7/85
f 3/5/85 76/9/85 75/129/85
f 189/130/86 75/129/86 76/9/86
f 75/129/87 189/130/87 119/128/87
f 79/131/88 77/133/88 78/132/88
f 77/133/89 79/131/89 76/134/89
f 10/23/90 82/135/90 83/26/90
f 82/135/91 10/23/91 81/136/91
f 82/135/92 85/28/92 83/26/92
f 85/28/93 82/135/93 84/137/93
f 81/138/94 80/140/94 86/139/94
f 81/141/95 13/21/95 80/142/95
f 13/21/96 81/141/96 10/30/96
f 80/140/97 91/143/97 86/139/97
f 88/144/98 87/146/98 93/145/98
f 90/147/99 89/149/99 94/148/99
f 89/149/100 95/150/100 94/148/100
f 95/150/101 89/149/101 86/139/101
f 86/139/102 93/145/102 95/150/102
f 93/145/103 86/139/103 88/144/103
f 93/145/104 96/152/104 97/151/104
f 96/152/105 93/145/105 87/146/105
f 90/147/106 98/154/106 99/153/106
f 98/154/107 90/147/107 94/148/107
f 94/148/108 100/155/108 98/154/108
f 100/155/109 94/148/109 95/150/109
f 95/150/110 97/151/110 100/155/110
f 97/151/111 95/150/111 93/145/111
f 85/28/112 101/156/112 102/49/112
f 101/156/113 85/28/113 84/137/113
f 84/157/114 90/147/114 101/158/114
f 103/159/115 104/161/115 105/160/115
f 106/162/116 91/143/116 108/163/116
f 91/143/117 109/165/117 110/164/117
f 109/165/118 103/159/118 110/164/118
f 105/160/119 111/167/119 112/166/119
f 92/168/120 108/163/120 113/169/120
f 107/170/121 114/172/121 115/171/121
f 114/172/122 107/170/122 110/164/122
f 110/164/123 112/166/123 114/172/123
f 112/166/124 110/164/124 105/160/124
f 102/49/125 116/173/125 36/67/125
f 116/173/126 102/49/126 101/156/126
f 101/158/127 117/175/127 116/174/127
f 117/175/128 101/158/128 99/153/128
f 116/176/50 117/178/50 118/177/50
f 118/177/50 39/72/50 36/179/50
f 108/163/129 115/171/129 113/169/129
f 91/143/130 88/144/130 86/139/130
f 88/144/131 91/143/131 106/162/131
f 108/163/132 92/168/132 106/162/132
f 96/152/133 87/146/133 120/180/133
f 87/146/134 121/181/134 120/180/134
f 121/181/135 87/146/135 92/168/135
f 111/167/136 104/161/136 122/182/136
f 92/168/137 113/169/137 121/181/137
f 108/163/138 107/170/138 115/171/138
f 188/183/139 104/161/139 192/184/139
f 104/161/140 188/183/140 124/185/140
f 123/186/141 76/134/141 79/131/141
f 76/134/142 123/186/142 182/187/142
f 103/159/143 109/165/143 119/188/143
f 196/189/144 80/140/144 74/22/144
f 198/3/145 80/140/145 196/189/145
f 198/3/146 119/188/146 80/140/146
f 73/4/147 119/188/147 198/3/147
f 121/190/68 125/192/68 120/191/68
f 125/192/68 121/190/68 143/127/68
f 46/94/148 188/194/148 186/193/148
f 188/194/148 46/94/148 124/123/148
f 122/195/69 124/123/69 126/124/69
f 128/196/70 130/198/70 127/197/70
f 130/198/70 128/196/70 129/199/70
f 129/199/70 131/201/70 132/200/70
f 131/201/70 129/199/70 128/196/70
f 130/198/149 133/203/149 134/202/149
f 133/203/150 130/198/150 129/199/150
f 127/204/151 134/202/151 135/205/151
f 134/202/151 127/204/151 130/198/151
f 132/206/152 133/203/152 129/199/152
f 133/203/153 132/206/153 136/207/153
f 134/202/50 137/209/50 138/208/50
f 137/209/50 134/202/50 133/203/50
f 133/203/50 139/210/50 137/209/50
f 139/210/50 133/203/50 136/211/50
f 131/212/154 136/207/154 132/206/154
f 136/207/155 131/212/155 139/213/155
f 144/214/156 140/216/156 178/215/156
f 105/160/157 104/161/157 111/167/157
f 104/161/158 124/185/158 122/182/158
f 1/20/159 13/21/159 8/31/159
f 13/21/160 74/22/160 80/142/160
f 48/52/161 31/57/161 29/54/161
f 110/164/162 103/159/162 105/160/162
f 44/33/163 31/57/163 42/59/163
f 91/143/164 110/164/164 107/170/164
f 44/33/165 40/56/165 30/58/165
f 108/163/166 91/143/166 107/170/166
f 118/177/50 36/179/50 116/176/50
f 36/179/50 39/72/50 37/70/50
f 125/192/68 72/90/68 71/91/68
f 72/90/68 125/192/68 143/127/68
f 125/192/167 39/72/167 118/177/167
f 39/72/167 125/192/167 71/91/167
f 17/35/168 26/50/168 27/46/168
f 101/158/169 90/147/169 99/153/169
f 8/32/170 195/217/170 1/20/170
f 8/32/171 197/2/171 195/217/171
f 50/86/172 197/2/172 8/32/172
f 2/1/173 197/2/173 50/86/173
f 91/143/174 119/188/174 109/165/174
f 91/143/175 80/140/175 119/188/175
f 50/86/176 44/33/176 42/59/176
f 8/32/177 44/33/177 50/86/177
f 9/36/178 14/34/178 8/32/178
f 81/138/179 86/139/179 89/149/179
f 17/35/180 11/218/180 12/51/180
f 11/218/181 17/35/181 9/36/181
f 9/36/182 16/37/182 14/34/182
f 82/219/183 90/147/183 84/157/183
f 90/147/184 82/219/184 81/138/184
f 81/138/185 89/149/185 90/147/185
f 87/146/186 106/162/186 92/168/186
f 106/162/187 87/146/187 88/144/187
f 43/55/188 15/39/188 28/62/188
f 15/39/189 43/55/189 18/38/189
f 145/220/190 146/222/190 147/221/190
f 145/220/191 147/221/191 148/223/191
f 145/220/192 148/223/192 149/224/192
f 145/220/193 149/224/193 150/225/193
f 145/220/194 150/225/194 146/222/194
f 146/226/195 150/228/195 147/227/195
f 148/229/195 150/228/195 149/230/195
f 150/228/195 148/229/195 147/227/195
f 151/231/190 152/233/190 153/232/190
f 151/231/191 153/232/191 154/234/191
f 151/231/192 154/234/192 155/235/192
f 151/231/193 155/235/193 156/236/193
f 151/231/194 156/236/194 152/233/194
f 152/237/195 156/239/195 153/238/195
f 154/240/195 156/239/195 155/241/195
f 156/239/195 154/240/195 153/238/195
f 157/242/190 158/244/190 159/243/190
f 157/242/191 159/243/191 160/245/191
f 157/242/192 160/245/192 161/246/192
f 157/242/193 161/246/193 162/247/193
f 157/242/194 162/247/194 158/244/194
f 158/248/195 162/250/195 159/249/195
f 160/251/195 162/250/195 161/252/195
f 162/250/195 160/251/195 159/249/195
f 163/253/190 164/255/190 165/254/190
f 163/253/191 165/254/191 166/256/191
f 163/253/192 166/256/192 167/257/192
f 163/253/193 167/257/193 168/258/193
f 163/253/194 168/258/194 164/255/194
f 164/259/195 168/261/195 165/260/195
f 166/262/195 168/261/195 167/263/195
f 168/261/195 166/262/195 165/260/195
f 169/264/195 172/266/195 170/265/195
f 172/266/195 169/264/195 171/267/195
f 174/268/195 176/270/195 175/269/195
f 176/270/195 174/268/195 173/271/195
f 67/114/196 177/115/196 68/272/196
f 144/214/197 178/215/197 180/273/197
f 178/215/198 141/275/198 142/274/198
f 141/275/199 178/215/199 140/216/199
f 69/276/200 177/115/200 53/277/200
f 177/115/201 69/276/201 68/272/201
f 144/278/202 68/117/202 140/118/202
f 68/117/202 144/278/202 67/279/202
f 104/161/203 194/280/203 192/184/203
f 144/281/204 179/283/204 67/282/204
f 179/283/204 144/281/204 180/284/204
f 177/115/205 179/116/205 183/285/205
f 180/273/206 178/215/206 184/286/206
f 4/17/207 49/287/207 7/16/207
f 49/287/208 4/17/208 181/83/208
f 182/187/209 189/288/209 76/134/209
f 189/288/210 182/187/210 193/289/210
f 177/115/211 190/84/211 191/290/211
f 190/84/212 177/115/212 181/83/212
f 193/289/213 178/215/213 194/280/213
f 178/215/214 193/289/214 182/187/214
f 180/284/215 183/88/215 179/283/215
f 183/88/215 180/284/215 184/87/215
f 181/83/216 183/285/216 49/287/216
f 177/115/217 183/285/217 181/83/217
f 184/286/218 178/215/218 182/187/218
f 184/286/219 182/187/219 123/186/219
f 53/277/220 191/290/220 187/77/220
f 191/290/221 53/277/221 177/115/221
f 187/77/222 186/78/222 53/277/222
f 190/84/223 50/86/223 48/52/223
f 50/86/224 190/84/224 185/85/224
f 188/183/225 192/184/225 142/274/225
f 53/291/226 188/194/226 142/292/226
f 188/194/226 53/291/226 186/193/226
f 193/289/227 119/188/227 189/288/227
f 119/188/228 193/289/228 103/159/228
f 191/290/229 48/52/229 52/53/229
f 48/52/230 191/290/230 190/84/230
f 103/159/231 194/280/231 104/161/231
f 194/280/232 103/159/232 193/289/232
f 187/77/233 191/290/233 52/53/233
f 142/274/234 194/280/234 178/215/234
f 194/280/235 142/274/235 192/184/235
f 1/20/236 196/189/236 74/22/236
f 196/189/236 1/20/236 195/217/236
f 195/217/237 198/3/237 196/189/237
f 198/3/237 195/217/237 197/2/237
o escortwheel
v 75.764275 24.427879 -109.536636
v 75.764275 3.377790 -105.791832
v 75.764275 -15.154720 -116.453835
v 75.764275 -22.497923 -136.533920
v 75.764275 -15.216024 -156.636230
v 75.764275 3.283806 -167.354828
v 75.764275 24.345276 -163.674332
v 75.764275 38.113480 -147.316742
v 75.764275 38.146080 -125.936134
v 52.558678 24.427879 -109.536636
v 52.558678 3.377790 -105.791832
v 52.558678 -15.154720 -116.453835
v 52.558678 -22.497923 -136.533920
v 52.558678 -15.216024 -156.636337
v 52.558678 3.283806 -167.354828
v 52.558678 24.345276 -163.674332
v 52.558678 38.113480 -147.316742
v 52.558678 38.146080 -125.936134
vn -0.0000 0.9392 -0.3435
vn -0.0000 0.5013 0.8653
vn -0.0000 -0.7651 0.6440
vn -0.0000 -1.0000 0.0015
vn -0.0000 -0.7670 -0.6416
vn -1.0000 -0.0000 -0.0000
vn -0.0000 -0.1751 -0.9845
vn -0.0000 0.4987 -0.8668
vn -0.0000 0.9402 0.3406
vn -0.0000 -0.1721 0.9851
vn 1.0000 -0.0000 -0.0000
vt 0.957998 0.435321
vt 0.998358 0.435321
vt 0.998358 0.472155
vt 0.957998 0.472155
vt 0.957998 0.693168
vt 0.998358 0.693168
vt 0.998358 0.730003
vt 0.957998 0.730003
vt 0.957998 0.619496
vt 0.998358 0.619496
vt 0.998358 0.656332
vt 0.957998 0.656332
vt 0.957998 0.582660
vt 0.998358 0.582660
vt 0.957998 0.545825
vt 0.998358 0.545825
vt 0.519271 0.791739
vt 0.540915 0.829359
vt 0.533313 0.872090
vt 0.478510 0.776833
vt 0.500023 0.899937
vt 0.437703 0.791615
vt 0.456621 0.899871
vt 0.415945 0.829169
vt 0.423416 0.871923
vt 0.957998 0.508990
vt 0.998358 0.508990
vt 0.998358 0.766837
vt 0.957998 0.766837
vt 0.549722 0.868534
vt 0.598248 0.850788
vt 0.533006 0.964190
vt 0.523956 0.913320
vt 0.646827 0.868386
vt 0.572637 0.997342
vt 0.672730 0.913093
vt 0.624306 0.997263
vt 0.663836 0.963991
s 0
usemtl 01_-_Default
f 202/293/238 211/294/238 210/295/238
f 210/295/238 201/296/238 202/293/238
f 204/297/239 213/298/239 212/299/239
f 212/299/239 203/300/239 204/297/239
f 206/301/240 215/302/240 214/303/240
f 214/303/240 205/304/240 206/301/240
f 207/305/241 216/306/241 215/302/241
f 215/302/241 206/301/241 207/305/241
f 199/307/242 208/308/242 216/306/242
f 216/306/242 207/305/242 199/307/242
f 201/309/243 200/310/243 199/311/243
f 199/311/243 202/312/243 201/309/243
f 202/312/243 199/311/243 207/313/243
f 207/313/243 203/314/243 202/312/243
f 203/314/243 207/313/243 206/315/243
f 206/315/243 204/316/243 203/314/243
f 205/317/243 204/316/243 206/315/243
f 208/308/244 199/307/244 200/318/244
f 200/318/244 209/319/244 208/308/244
f 209/319/245 200/318/245 201/296/245
f 201/296/245 210/295/245 209/319/245
f 211/320/246 202/321/246 203/300/246
f 203/300/246 212/299/246 211/320/246
f 213/298/247 204/297/247 205/304/247
f 205/304/247 214/303/247 213/298/247
f 210/322/248 211/323/248 208/324/248
f 208/324/248 209/325/248 210/322/248
f 211/323/248 212/326/248 216/327/248
f 216/327/248 208/324/248 211/323/248
f 212/326/248 213/328/248 215/329/248
f 215/329/248 216/327/248 212/326/248
f 214/330/248 215/329/248 213/328/248
o escortwheel.001
v 75.764275 24.427879 136.661026
v 75.764275 3.377790 140.405823
v 75.764275 -15.154720 129.743835
v 75.764275 -22.497923 109.663742
v 75.764275 -15.216024 89.561432
v 75.764275 3.283806 78.842827
v 75.764275 24.345276 82.523331
v 75.764275 38.113480 98.880928
v 75.764275 38.146080 120.261528
v 52.558678 24.427879 136.661026
v 52.558678 3.377790 140.405823
v 52.558678 -15.154720 129.743835
v 52.558678 -22.497923 109.663742
v 52.558678 -15.216024 89.561333
v 52.558678 3.283806 78.842827
v 52.558678 24.345276 82.523331
v 52.558678 38.113480 98.880928
v 52.558678 38.146080 120.261528
vn -0.0000 0.9392 -0.3435
vn -0.0000 0.5013 0.8653
vn -0.0000 -0.7651 0.6440
vn -0.0000 -1.0000 0.0015
vn -0.0000 -0.7670 -0.6416
vn -1.0000 -0.0000 -0.0000
vn -0.0000 -0.1751 -0.9845
vn -0.0000 0.4987 -0.8668
vn -0.0000 0.9402 0.3406
vn -0.0000 -0.1721 0.9851
vn 1.0000 -0.0000 -0.0000
vt 0.957998 0.435321
vt 0.998358 0.435321
vt 0.998358 0.472155
vt 0.957998 0.472155
vt 0.957998 0.693168
vt 0.998358 0.693168
vt 0.998358 0.730003
vt 0.957998 0.730003
vt 0.957998 0.619496
vt 0.998358 0.619496
vt 0.998358 0.656332
vt 0.957998 0.656332
vt 0.957998 0.582660
vt 0.998358 0.582660
vt 0.957998 0.545825
vt 0.998358 0.545825
vt 0.519271 0.791739
vt 0.540915 0.829359
vt 0.533313 0.872090
vt 0.478510 0.776833
vt 0.500023 0.899937
vt 0.437703 0.791615
vt 0.456621 0.899871
vt 0.415945 0.829169
vt 0.423416 0.871923
vt 0.957998 0.508990
vt 0.998358 0.508990
vt 0.998358 0.766837
vt 0.957998 0.766837
vt 0.549722 0.868534
vt 0.598248 0.850788
vt 0.533006 0.964190
vt 0.523956 0.913320
vt 0.646827 0.868386
vt 0.572637 0.997342
vt 0.672730 0.913093
vt 0.624306 0.997263
vt 0.663836 0.963991
s 0
usemtl 01_-_Default.002
f 220/331/249 229/332/249 228/333/249
f 228/333/249 219/334/249 220/331/249
f 222/335/250 231/336/250 230/337/250
f 230/337/250 221/338/250 222/335/250
f 224/339/251 233/340/251 232/341/251
f 232/341/251 223/342/251 224/339/251
f 225/343/252 234/344/252 233/340/252
f 233/340/252 224/339/252 225/343/252
f 217/345/253 226/346/253 234/344/253
f 234/344/253 225/343/253 217/345/253
f 219/347/254 218/348/254 217/349/254
f 217/349/254 220/350/254 219/347/254
f 220/350/254 217/349/254 225/351/254
f 225/351/254 221/352/254 220/350/254
f 221/352/254 225/351/254 224/353/254
f 224/353/254 222/354/254 221/352/254
f 223/355/254 222/354/254 224/353/254
f 226/346/255 217/345/255 218/356/255
f 218/356/255 227/357/255 226/346/255
f 227/357/256 218/356/256 219/334/256
f 219/334/256 228/333/256 227/357/256
f 229/358/257 220/359/257 221/338/257
f 221/338/257 230/337/257 229/358/257
f 231/336/258 222/335/258 223/342/258
f 223/342/258 232/341/258 231/336/258
f 228/360/259 229/361/259 226/362/259
f 226/362/259 227/363/259 228/360/259
f 229/361/259 230/364/259 234/365/259
f 234/365/259 226/362/259 229/361/259
f 230/364/259 231/366/259 233/367/259
f 233/367/259 234/365/259 230/364/259
f 232/368/259 233/367/259 231/366/259
o escortwheel.002
v -80.263649 24.427879 136.661026
v -80.263649 3.377790 140.405823
v -80.263649 -15.154720 129.743835
v -80.263649 -22.497923 109.663742
v -80.263649 -15.216024 89.561432
v -80.263649 3.283806 78.842827
v -80.263649 24.345276 82.523331
v -80.263649 38.113480 98.880928
v -80.263649 38.146080 120.261528
v -57.058052 24.427879 136.661026
v -57.058052 3.377790 140.405823
v -57.058052 -15.154720 129.743835
v -57.058052 -22.497923 109.663742
v -57.058052 -15.216024 89.561333
v -57.058052 3.283806 78.842827
v -57.058052 24.345276 82.523331
v -57.058052 38.113480 98.880928
v -57.058052 38.146080 120.261528
vn -0.0000 0.9392 -0.3435
vn -0.0000 0.5013 0.8653
vn -0.0000 -0.7651 0.6440
vn -0.0000 -1.0000 0.0015
vn -0.0000 -0.7670 -0.6416
vn 1.0000 -0.0000 -0.0000
vn -0.0000 -0.1751 -0.9845
vn -0.0000 0.4987 -0.8668
vn -0.0000 0.9402 0.3406
vn -0.0000 -0.1721 0.9851
vn -1.0000 -0.0000 -0.0000
vt 0.957998 0.435321
vt 0.998358 0.435321
vt 0.998358 0.472155
vt 0.957998 0.472155
vt 0.957998 0.693168
vt 0.998358 0.693168
vt 0.998358 0.730003
vt 0.957998 0.730003
vt 0.957998 0.619496
vt 0.998358 0.619496
vt 0.998358 0.656332
vt 0.957998 0.656332
vt 0.957998 0.582660
vt 0.998358 0.582660
vt 0.957998 0.545825
vt 0.998358 0.545825
vt 0.519271 0.791739
vt 0.540915 0.829359
vt 0.533313 0.872090
vt 0.478510 0.776833
vt 0.500023 0.899937
vt 0.437703 0.791615
vt 0.456621 0.899871
vt 0.415945 0.829169
vt 0.423416 0.871923
vt 0.957998 0.508990
vt 0.998358 0.508990
vt 0.998358 0.766837
vt 0.957998 0.766837
vt 0.549722 0.868534
vt 0.598248 0.850788
vt 0.533006 0.964190
vt 0.523956 0.913320
vt 0.646827 0.868386
vt 0.572637 0.997342
vt 0.672730 0.913093
vt 0.624306 0.997263
vt 0.663836 0.963991
s 0
usemtl 01_-_Default.003
f 238/369/260 246/371/260 247/370/260
f 246/371/260 238/369/260 237/372/260
f 240/373/261 248/375/261 249/374/261
f 248/375/261 240/373/261 239/376/261
f 242/377/262 250/379/262 251/378/262
f 250/379/262 242/377/262 241/380/262
f 243/381/263 251/378/263 252/382/263
f 251/378/263 243/381/263 242/377/263
f 235/383/264 252/382/264 244/384/264
f 252/382/264 235/383/264 243/381/264
f 237/385/265 235/387/265 236/386/265
f 235/387/265 237/385/265 238/388/265
f 238/388/265 243/389/265 235/387/265
f 243/389/265 238/388/265 239/390/265
f 239/390/265 242/391/265 243/389/265
f 242/391/265 239/390/265 240/392/265
f 241/393/265 242/391/265 240/392/265
f 244/384/266 236/394/266 235/383/266
f 236/394/266 244/384/266 245/395/266
f 245/395/267 237/372/267 236/394/267
f 237/372/267 245/395/267 246/371/267
f 247/396/268 239/376/268 238/397/268
f 239/376/268 247/396/268 248/375/268
f 249/374/269 241/380/269 240/373/269
f 241/380/269 249/374/269 250/379/269
f 246/398/270 244/400/270 247/399/270
f 244/400/270 246/398/270 245/401/270
f 247/399/270 252/403/270 248/402/270
f 252/403/270 247/399/270 244/400/270
f 248/402/270 251/405/270 249/404/270
f 251/405/270 248/402/270 252/403/270
f 250/406/270 249/404/270 251/405/270
o escortwheel.003
v -76.900200 24.427879 -109.536636
v -76.900200 3.377790 -105.791832
v -76.900200 -15.154720 -116.453835
v -76.900200 -22.497923 -136.533920
v -76.900200 -15.216024 -156.636230
v -76.900200 3.283806 -167.354828
v -76.900200 24.345276 -163.674332
v -76.900200 38.113480 -147.316742
v -76.900200 38.146080 -125.936134
v -53.694603 24.427879 -109.536636
v -53.694603 3.377790 -105.791832
v -53.694603 -15.154720 -116.453835
v -53.694603 -22.497923 -136.533920
v -53.694603 -15.216024 -156.636337
v -53.694603 3.283806 -167.354828
v -53.694603 24.345276 -163.674332
v -53.694603 38.113480 -147.316742
v -53.694603 38.146080 -125.936134
vn -0.0000 0.9392 -0.3435
vn -0.0000 0.5013 0.8653
vn -0.0000 -0.7651 0.6440
vn -0.0000 -1.0000 0.0015
vn -0.0000 -0.7670 -0.6416
vn 1.0000 -0.0000 -0.0000
vn -0.0000 -0.1751 -0.9845
vn -0.0000 0.4987 -0.8668
vn -0.0000 0.9402 0.3406
vn -0.0000 -0.1721 0.9851
vn -1.0000 -0.0000 -0.0000
vt 0.957998 0.435321
vt 0.998358 0.435321
vt 0.998358 0.472155
vt 0.957998 0.472155
vt 0.957998 0.693168
vt 0.998358 0.693168
vt 0.998358 0.730003
vt 0.957998 0.730003
vt 0.957998 0.619496
vt 0.998358 0.619496
vt 0.998358 0.656332
vt 0.957998 0.656332
vt 0.957998 0.582660
vt 0.998358 0.582660
vt 0.957998 0.545825
vt 0.998358 0.545825
vt 0.519271 0.791739
vt 0.540915 0.829359
vt 0.533313 0.872090
vt 0.478510 0.776833
vt 0.500023 0.899937
vt 0.437703 0.791615
vt 0.456621 0.899871
vt 0.415945 0.829169
vt 0.423416 0.871923
vt 0.957998 0.508990
vt 0.998358 0.508990
vt 0.998358 0.766837
vt 0.957998 0.766837
vt 0.549722 0.868534
vt 0.598248 0.850788
vt 0.533006 0.964190
vt 0.523956 0.913320
vt 0.646827 0.868386
vt 0.572637 0.997342
vt 0.672730 0.913093
vt 0.624306 0.997263
vt 0.663836 0.963991
s 0
usemtl 01_-_Default.004
f 256/407/271 264/409/271 265/408/271
f 264/409/271 256/407/271 255/410/271
f 258/411/272 266/413/272 267/412/272
f 266/413/272 258/411/272 257/414/272
f 260/415/273 268/417/273 269/416/273
f 268/417/273 260/415/273 259/418/273
f 261/419/274 269/416/274 270/420/274
f 269/416/274 261/419/274 260/415/274
f 253/421/275 270/420/275 262/422/275
f 270/420/275 253/421/275 261/419/275
f 255/423/276 253/425/276 254/424/276
f 253/425/276 255/423/276 256/426/276
f 256/426/276 261/427/276 253/425/276
f 261/427/276 256/426/276 257/428/276
f 257/428/276 260/429/276 261/427/276
f 260/429/276 257/428/276 258/430/276
f 259/431/276 260/429/276 258/430/276
f 262/422/277 254/432/277 253/421/277
f 254/432/277 262/422/277 263/433/277
f 263/433/278 255/410/278 254/432/278
f 255/410/278 263/433/278 264/409/278
f 265/434/279 257/414/279 256/435/279
f 257/414/279 265/434/279 266/413/279
f 267/412/280 259/418/280 258/411/280
f 259/418/280 267/412/280 268/417/280
f 264/436/281 262/438/281 265/437/281
f 262/438/281 264/436/281 263/439/281
f 265/437/281 270/441/281 266/440/281
f 270/441/281 265/437/281 262/438/281
f 266/440/281 269/443/281 267/442/281
f 269/443/281 266/440/281 270/441/281
f 268/444/281 267/442/281 269/443/281
